<?xml version="1.0" encoding="utf-8"?>
<!-- Generator: Adobe Illustrator 20.0.0, SVG Export Plug-In . SVG Version: 6.00 Build 0)  -->
<svg version="1.1" id="Layer_1" xmlns="http://www.w3.org/2000/svg" xmlns:xlink="http://www.w3.org/1999/xlink" x="0px" y="0px"
	 viewBox="0 0 36.1 35.9" style="enable-background:new 0 0 36.1 35.9;" xml:space="preserve">
<style type="text/css">
	.st0{fill:#4D4D4D;}
</style>
<title>Asset 2</title>
<g id="Layer_2">
	<g id="home_page">
		<g id="Main_Nav">
			<g id="social_utility">
				<g id="Icons">
					<path id="LinkedIn_alt_" class="st0" d="M30.7,3.3H5.1c-1.2,0-2.2,0.9-2.2,2.1c0,0,0,0,0,0v25.7c0,1.2,1,2.2,2.2,2.2
						c0,0,0,0,0,0h25.6c1.2,0,2.2-0.9,2.2-2.1c0,0,0,0,0,0V5.5C32.9,4.3,31.9,3.3,30.7,3.3C30.7,3.3,30.7,3.3,30.7,3.3z M12,28.4
						H7.4V14.9H12V28.4z M9.7,13L9.7,13c-1.3,0-2.4-1.1-2.3-2.4c0-1.3,1.1-2.4,2.4-2.3c1.3-0.1,2.4,0.8,2.6,2.1
						c0.1,1.3-0.8,2.4-2.1,2.6C10,13,9.9,13,9.7,13L9.7,13z M28.3,28.4h-4.5v-7.2c0-1.8-0.7-3.1-2.3-3.1c-1,0-2,0.7-2.3,1.6
						C19,20.1,19,20.5,19,20.9v7.6h-4.5c0,0,0.1-12.3,0-13.5H19v1.9c0.8-1.4,2.4-2.3,4.1-2.2c3,0,5.2,1.9,5.2,6.1V28.4z M19,16.8
						L19,16.8L19,16.8z"/>
				</g>
			</g>
		</g>
	</g>
</g>
</svg>
