<?xml version="1.0" encoding="utf-8"?>
<!-- Generator: Adobe Illustrator 20.0.0, SVG Export Plug-In . SVG Version: 6.00 Build 0)  -->
<svg version="1.1" id="Layer_1" xmlns="http://www.w3.org/2000/svg" xmlns:xlink="http://www.w3.org/1999/xlink" x="0px" y="0px"
	 viewBox="0 0 34 32" style="enable-background:new 0 0 34 32;" xml:space="preserve">
<style type="text/css">
	.st0{fill:#444444;}
</style>
<g>
	<path class="st0" d="M3.6,2.8v27.1h27.5V2.8C31.1,2.8,3.6,2.8,3.6,2.8z M28.9,27.8H5.7V5h23.2V27.8z"/>
	<path class="st0" d="M16.6,10.4c-0.7-0.6-1.7-0.9-3.2-0.9c-1.4,0-3.2,0-3.2,0v11.1h2.3v-3.6c0,0,0.4,0,0.8,0
		c1.6-0.1,2.5-0.5,3.3-1.4c0.6-0.6,1-1.5,1-2.6S17.2,11,16.6,10.4z M13.3,15.1c-0.4,0-0.5,0-0.8,0v-3.8c0,0,0.5,0,1,0
		c1.2,0,1.8,0.9,1.8,1.9C15.3,14.3,14.6,15.1,13.3,15.1z"/>
	<path class="st0" d="M22.2,15.5c-1-0.4-1.3-0.6-1.3-0.9c0-0.4,0.4-0.7,1-0.7c0.7,0,1.8,0.5,2.1,0.7v-1.9c-0.5-0.3-1.3-0.6-2.2-0.6
		c-2,0-3.3,1.2-3.3,2.7c0,1,0.6,1.7,2.3,2.2c1,0.3,1.2,0.8,1.2,1.2s-0.3,0.7-1.1,0.7c-0.8,0-1.9-0.4-2.3-0.7l0,0V20
		c0.6,0.3,1.5,0.7,2.3,0.7c2.4,0.1,3.6-1.2,3.6-2.7C24.4,16.8,23.8,16,22.2,15.5L22.2,15.5z"/>
</g>
</svg>
