<?xml version="1.0" encoding="utf-8"?>
<!-- Generator: Adobe Illustrator 20.0.0, SVG Export Plug-In . SVG Version: 6.00 Build 0)  -->
<svg version="1.1" id="Layer_1" xmlns="http://www.w3.org/2000/svg" xmlns:xlink="http://www.w3.org/1999/xlink" x="0px" y="0px"
	 viewBox="0 0 33.3 33.3" style="enable-background:new 0 0 33.3 33.3;" xml:space="preserve">
<style type="text/css">
	.st0{fill:#4D4D4D;}
</style>
<title>Asset 3</title>
<g id="Layer_2">
	<g id="home_page">
		<g id="Main_Nav">
			<g id="social_utility">
				<g id="Icons">
					<path id="Twitter" class="st0" d="M24.1,24.1h-7.4c-2,0-3.7-1.6-3.7-3.7c0,0,0,0,0,0v-2.6h10.5c1.9,0,3.5-1.6,3.5-3.5
						c0-1.9-1.6-3.5-3.5-3.5H12.9V5.4c0-1-0.4-2-1.1-2.6C11.2,2,10.2,1.6,9.2,1.6c-1,0-2,0.4-2.7,1.1C5.8,3.4,5.4,4.4,5.5,5.4v15
						c0,3,1.1,5.8,3.3,7.9c2.1,2.2,4.9,3.4,7.9,3.3h7.4c2.1,0,3.7-1.7,3.7-3.8c0-1-0.4-1.9-1.1-2.6C26,24.5,25.1,24.1,24.1,24.1z"/>
				</g>
			</g>
		</g>
	</g>
</g>
</svg>
