<svg id="Logo_5-2" data-name="Logo 5-2" xmlns="http://www.w3.org/2000/svg" viewBox="0 0 670.96 318.98"><defs><style>.cls-1,.cls-2{fill:#dfdfdf;}.cls-1,.cls-4{stroke:#fff;stroke-miterlimit:10;}.cls-3{fill:none;}.cls-4{fill:#474747;}</style></defs><title>BrownAE-logo-grey-white</title><path class="cls-1" d="M125.77,428.27c0-41.62.11-84.64.11-126.27v-1.46m.28,127.92M136.83,434c2.76,1.22,5.79,3.08,8.31,4.39l6.18,3.21-14.18-54.12-.31,0V434m-10.95-5.48M85.34,408.16a2.35,2.35,0,0,1-1-1.72q0-58.61,0-117.22c0-.42,0-2.54,0-3.09.56.16,2.16.81,2.52.94C90,288.19,92,288.94,95.18,290c2.35.78,4,3.82,5.45,5.79A36.54,36.54,0,0,1,105,305c3.56,10.06,3.27,20.6,3.86,31a5.21,5.21,0,0,0,.45,1.78c.84,1.89,1.93,3.7,2.6,5.64,5.47,16,8,32.31,6.22,49.18-.61,5.86-4.31,19.29-14.61,24l-.87.37m3.15,1.07-.53-.27.77.39c-8.54-4.34,16.85,8.65,19.68,10.07m.11-127.72c-10.87-3.72-23-8-33.89-11.71-2.4-.83-4.76-1.75-7.14-2.62H752.51V603.95H83.89V406.9l41.88,21.38M361.64,551.2l46.2,24.06L362,458.1l-.27.07c0,30.66-.1,62.2-.1,93M299.7,518.94l44.67,23.26m-73.14-38c.23.1.41.16.59.25q10.07,5.24,20.14,10.49c2.32,1.22,4.61,2.49,6.92,3.73m45.5,23.56c0-54.2.19-110.51.19-164.7,0-1.28,0,.41,0-1a3.74,3.74,0,0,1,.1-1c.35.69.76,1.28,1,1.86q12.81,29.57,25.63,59.12l35.88,82.75c.13.3.31.57.57,1.05,0-.37.05-.49.05-.61q0-60.65,0-121.31c0-.8-.32-1.07-1-1.3q-30.36-10.41-60.7-20.87a5.91,5.91,0,0,1-1-.62h0a13.56,13.56,0,0,1-1.68-.32c-.8-.23-1.59-.54-2.38-.81l-9.38-3.22c-.11.34-.2.56-.25.79q-1.6,7.38-3.19,14.75l-13.32,61.35q-5.44,25.05-10.89,50.11-2.1,9.66-4.18,19.32c-.11.52-.06,1.25-1,1.1a3.55,3.55,0,0,0,0-.6q-2.29-12.85-4.6-25.7L286.68,450q-1-5.36-1.93-10.71h-.19l-13.4,64.61-.78-.3q-2.44-14-4.88-28.09-5.95-34.11-11.91-68.22-5.74-32.93-11.46-65.87A1.53,1.53,0,0,0,241,340q-17.45-6-34.88-12c-.34-.12-.69-.19-.93-.26,1.75,1.16,3.64,2.22,5.31,3.56,5.28,4.24,8.87,9.82,11.86,15.79,8.57,17.12,12.75,35.39,13.93,54.41a158.82,158.82,0,0,1-.47,26.82,87.43,87.43,0,0,1-5,22.37c-2.22,5.74-5,11.16-9.47,15.54-2.77,2.72-6,4.59-10,4.48a42,42,0,0,1-5.67-.86s.35.21.69.38Q232,483.67,257.64,497c4.25,2.21,8.52,4.37,12.77,6.56m416-201.08c-.5.14-.84.21-1.17.33l-65.84,22.51Q590.6,335.19,561.8,345a1.61,1.61,0,0,0-1.33,1.83q0,74.09,0,148.19v1.4l1.25-.61,16.18-8.36,58.94-30.52q24.15-12.5,48.32-25a1.92,1.92,0,0,0,1.23-2c-.05-6.4,0-12.8,0-19.2,0-.45,0-.9-.07-1.53l-86.37,42.1c0-.38-.06-.58-.06-.77,0-11.28,0-22.56,0-33.84,0-.92.51-1.12,1.14-1.4q42.15-18.71,84.31-37.41a1.56,1.56,0,0,0,1.11-1.68c0-6.16,0-12.32,0-18.48v-1.38l-86.51,35.92c0-.57,0-1,0-1.34,0-11,0-21.92,0-32.88a1.58,1.58,0,0,1,1.22-1.8q42-15.56,84-31.16a1.73,1.73,0,0,0,1.35-2c-.05-6.36,0-12.72,0-19.08ZM454.5,550.21c.59-.29,1-.47,1.37-.66l19.7-10.16Q498.3,527.65,521,515.93a1.73,1.73,0,0,0,1.1-1.82q0-31.68,0-63.36v-1.41c-.63.26-1.11.43-1.57.64q-32.48,14.37-65,28.72a1.63,1.63,0,0,0-1.09,1.81q0,34.14,0,68.28Zm67.62-164.26-67.52,25.1V453c.37-.13.63-.22.88-.32q32.85-13.63,65.7-27.25a1.36,1.36,0,0,0,1-1.51q0-18.3,0-36.59ZM149.6,308.64c1.65,2.12,3.54,4.2,5,6.53a62,62,0,0,1,7,16.61,105.58,105.58,0,0,1,3.07,42.51,50.14,50.14,0,0,1-5.22,17.47c-1.48,2.79-3.25,5.35-6.1,6.91-.85.47-.93.91-.7,1.78q6.27,23.43,12.47,46.87c.14.53.2,1.08.32,1.71l35.81,18.64a44.25,44.25,0,0,1-12.41-14.81C181,438.55,176.81,423.09,174.62,407a162.7,162.7,0,0,1-1.28-28.95,110.12,110.12,0,0,1,3.66-25.2c2-7.09,4.74-13.83,9.39-19.65a17,17,0,0,1,9.08-6.33,17.43,17.43,0,0,1,7-.06Zm73.7,98.65A97.77,97.77,0,0,0,221.38,387a72,72,0,0,0-8.33-22.6c-2.06-3.43-4.55-6.49-8.25-8.31s-7.21-1.41-10.28,1.46a18.28,18.28,0,0,0-2.85,3.53,39.73,39.73,0,0,0-5.51,16,93.83,93.83,0,0,0,2.65,39.53c1.78,6.24,4.1,12.28,7.9,17.63a18.69,18.69,0,0,0,7.18,6.39,8.44,8.44,0,0,0,10.23-1.72,26.24,26.24,0,0,0,6.09-10.47C222.68,421.3,223.25,413.9,223.29,407.29Zm75.83,24.21.22,0,14.45-66.45-57.06-19.61,13.91,73.95h.23l13.48-63.56.29,0ZM136.9,329.67v1.56q0,11.21,0,22.42c0,4.8,0,9.59,0,14.39a1.68,1.68,0,0,0,.63,1.3c2.61,1.19,5.26,2.31,7.93,3.38a3.27,3.27,0,0,0,4-.92,18.57,18.57,0,0,0,2.72-4.58c1.63-4.29,1.81-8.8,1.6-13.34a39.45,39.45,0,0,0-3.9-16.05c-.92-1.84-2-3.69-3.91-4.55C143.11,332,140.1,330.92,136.9,329.67ZM92.54,351.36c0,12.09,0,24,0,35.91a1.58,1.58,0,0,0,.77,1.13c2.14,1.08,4.31,2.09,6.48,3.09,1.61.74,3.07.56,4-.9a19.87,19.87,0,0,0,2.47-5c1.19-3.73,1.18-7.62,1.06-11.51a45.22,45.22,0,0,0-4.07-16.89,5.18,5.18,0,0,0-2.18-2.56C98.41,353.39,95.52,352.47,92.54,351.36Zm0-36.89c0,.55,0,.93,0,1.31,0,3.07.09,6.15,0,9.22a2.1,2.1,0,0,0,1.7,2.47c1.93.63,2.83.35,3-1.68a73.2,73.2,0,0,0,0-8.58A2.46,2.46,0,0,0,96,315.5,19.93,19.93,0,0,0,92.54,314.47Z" transform="translate(-82.05 -285.47)"/><path class="cls-2" d="M695.78,450.29l-13.49,7a7.61,7.61,0,0,0,1,.58c2,.7,3.94,2,5.86,1.91s3.75-1.55,5.6-2.45c1.4-.68,2.77-1.44,4.17-2.11a2.08,2.08,0,0,1,1.34-.24c1.9.6,3.76,1.3,6,2.1-1.89,1-3.5,1.78-5.1,2.62s-3.15,1.66-5,2.65c.61.3.93.5,1.28.62,1.57.58,3.13,1.21,4.74,1.67a3.23,3.23,0,0,0,2.12-.11c3.94-1.94,7.84-4,11.74-6a2.37,2.37,0,0,1,2.15-.16c1.7.67,3.44,1.24,5.4,1.94-1.9,1-3.61,1.9-5.33,2.79-4.69,2.42-9.37,4.84-14.08,7.21a2.36,2.36,0,0,1-1.67.15q-16.53-5.89-33-11.87a2.08,2.08,0,0,1-.3-.2l10.67-5.5c2.88-1.48,5.75-3,8.64-4.44a2,2,0,0,1,1.33-.27C691.76,448.79,693.7,449.53,695.78,450.29Z" transform="translate(-82.05 -285.47)"/><path d="M93.5,325" transform="translate(-82.05 -285.47)"/><path d="M98.18,325.78" transform="translate(-82.05 -285.47)"/><path class="cls-2" d="M502.93,559.11c4.78-3.1,9.45-5.17,14.94-3.93,1.32.3,2.85.7,3.05,2.29s-1.31,2.14-2.4,3c-3.32,2.47-6.68,2.62-10.32.68A44.63,44.63,0,0,0,502.93,559.11Z" transform="translate(-82.05 -285.47)"/><path class="cls-2" d="M492.88,555.28A4.65,4.65,0,0,1,498,554c.29.14.71.47.7.69a1.41,1.41,0,0,1-.6.91A4.06,4.06,0,0,1,492.88,555.28Z" transform="translate(-82.05 -285.47)"/><path class="cls-2" d="M530.18,535.93a4.63,4.63,0,0,1,.83-.58c6.88-2.68,13.84-3.34,20.9-.77a7.54,7.54,0,0,1,2.14,1.29,3.34,3.34,0,0,1,.57,4.9,16.93,16.93,0,0,1-3.12,2.54,1.41,1.41,0,0,1-1.11,0q-9.76-3.47-19.51-7A4.19,4.19,0,0,1,530.18,535.93Z" transform="translate(-82.05 -285.47)"/><path class="cls-3" d="M93.5,410.29a5.65,5.65,0,0,1-.12,1,3.75,3.75,0,0,0-.05.54.78.78,0,0,0,0,.28,6.49,6.49,0,0,0,.92-.51l.46-.24s.16-.14.22-.11,0,.39,0,.46-.09.36,0,.45.14,0,.2,0l.24.05a3.08,3.08,0,0,1,.64.38,5,5,0,0,0,.65.32c.2.08.39.18.59.26s.23.13.36.18a4.57,4.57,0,0,1,.57.23l.41.22a2.25,2.25,0,0,0,.33.19c.36.12.66.36,1,.51.08,0,.17.05.25.09a.53.53,0,0,0,.21.08l.31.05c.06,0,.19,0,.24.07" transform="translate(-82.05 -285.47)"/><path class="cls-3" d="M93.63,293" transform="translate(-82.05 -285.47)"/><path class="cls-3" d="M89.88,289.25" transform="translate(-82.05 -285.47)"/><path class="cls-3" d="M89.88,288.63" transform="translate(-82.05 -285.47)"/><path class="cls-3" d="M89.13,288.13" transform="translate(-82.05 -285.47)"/><path class="cls-3" d="M98.13,290.63" transform="translate(-82.05 -285.47)"/><path class="cls-3" d="M98.13,291.38" transform="translate(-82.05 -285.47)"/><path class="cls-3" d="M98.38,291.25" transform="translate(-82.05 -285.47)"/><path class="cls-4" d="M655.32,476.54l7.89-4.09c2.52-1.31,5-2.65,7.58-3.88a3,3,0,0,1,2.13-.24,37.33,37.33,0,0,1,7,3.06c3.37,2.15,3.63,5.94.85,8.84-3,3.11-6.81,4.71-10.8,6a53.29,53.29,0,0,1-14,2.25,37.52,37.52,0,0,1-15.62-2.25,17.65,17.65,0,0,1-4-2.22,5.15,5.15,0,0,1-1-7.78,19.36,19.36,0,0,1,4.87-4c5.27-3.09,11.16-4.21,17.15-4.87.22,0,.48.34.71.54,0,0,0,.15,0,.23.24,3.06.24,3-2.81,3.47a21.16,21.16,0,0,0-9.15,3.34c-1.45,1-2.77,2.23-2.62,4.16s1.7,3.06,3.43,3.79a23.84,23.84,0,0,0,11.63,1.49,26.89,26.89,0,0,0,10.56-2.83c1.67-.9,3.31-1.92,3.83-3.91a4,4,0,0,0-.15-2.29c-.55-1.42-1.11-1.55-2.48-.85-2.46,1.26-4.91,2.51-7.35,3.81a2.59,2.59,0,0,1-2.38.16C658.93,477.8,657.24,477.24,655.32,476.54Z" transform="translate(-82.05 -285.47)"/><path class="cls-4" d="M437.18,576.88c2.12-1.08,4.19-2.28,6.39-3.16.87-.35,2,0,3.06.11,4,.43,8.08.91,12.12,1.35,2.25.24,4.5.44,6.75.66l.21-.34L456.9,567l21.34,2.27.17-.41-9-8.63c2.32-1.18,4.5-2.33,6.72-3.37.27-.13.89.22,1.2.51q7,6.49,13.94,13l5.74,5.35-21.81-2.4-.22.36,8.87,8.24-.07.31-46.5-5.17Z" transform="translate(-82.05 -285.47)"/><path class="cls-4" d="M502.22,543.26c4.44-1.91,8.19-4.84,12.82-5.79,4.43-.91,8.91-1.29,13.18.55a7.23,7.23,0,0,0,4.46.39,31.79,31.79,0,0,1,14.59.39,16.72,16.72,0,0,1,4.32,2,3.58,3.58,0,0,1,.85,5.68,12.09,12.09,0,0,1-3.33,2.67c-3.82,2.09-7.7,4.06-11.6,6a2.85,2.85,0,0,1-2,.12q-16.31-5.79-32.59-11.69C502.75,543.51,502.61,543.44,502.22,543.26Zm23.71,2.85a44.63,44.63,0,0,1,5.28,2c3.63,1.93,7,1.79,10.32-.68,1.09-.81,2.6-1.34,2.4-3s-1.73-2-3.05-2.29C535.38,540.94,530.71,543,525.93,546.11Zm-10.05-3.83a4.06,4.06,0,0,0,5.26.37,1.41,1.41,0,0,0,.6-.91c0-.23-.41-.55-.7-.69A4.65,4.65,0,0,0,515.88,542.28Z" transform="translate(-82.05 -285.47)"/><path class="cls-4" d="M721.64,459.8l-38.48,3.72-.09.44,18.33,6.63c-2.14,1.11-4.09,2.16-6.08,3.12a1.87,1.87,0,0,1-1.26-.11c-10.9-3.9-21.8-7.82-32.7-11.91L699.57,458l0-.48-18.27-6.59c2.26-1.14,4.28-2.19,6.33-3.17a1.59,1.59,0,0,1,1,.14l32.82,11.81S721.57,459.74,721.64,459.8Z" transform="translate(-82.05 -285.47)"/><path class="cls-4" d="M539.85,524c5.65-3.16,11.23-6,17.57-7.06a59.06,59.06,0,0,1,12.74-.92c4.89.26,9.7,1,14,3.54a6.57,6.57,0,0,1,3.56,4.29,5.52,5.52,0,0,1-1.79,5.31,21.59,21.59,0,0,1-4,3c-2.34,1.37-4.78,2.57-7.23,3.75a2.4,2.4,0,0,1-1.67,0q-15.45-5.51-30.88-11.09Zm13.32-1.06a4.19,4.19,0,0,0,.7.45q9.75,3.51,19.51,7a1.41,1.41,0,0,0,1.11,0,16.93,16.93,0,0,0,3.12-2.54,3.34,3.34,0,0,0-.57-4.9,7.54,7.54,0,0,0-2.14-1.29c-7.06-2.57-14-1.91-20.9.77A4.63,4.63,0,0,0,553.18,522.93Z" transform="translate(-82.05 -285.47)"/><path class="cls-4" d="M593,502.2l-13.5,7a14.92,14.92,0,0,0,1.35.69c1.61.59,3.22,1.22,4.86,1.71a2.67,2.67,0,0,0,1.78-.11c2.87-1.4,5.68-2.93,8.55-4.33a2.83,2.83,0,0,1,1.89-.14c1.78.54,3.51,1.23,5.53,2l-9.82,5.12,0,.39c2.2.79,4.39,1.62,6.61,2.33.36.12.91-.2,1.32-.41,3.84-2,7.68-3.94,11.49-6a2.73,2.73,0,0,1,2.5-.16c1.63.66,3.29,1.21,5.1,1.87a6.48,6.48,0,0,1-.61.42c-6.18,3.19-12.35,6.39-18.55,9.52a2.82,2.82,0,0,1-2,.15q-16-5.69-32-11.49c-.32-.12-.63-.27-1.15-.5l6-3.12c4.37-2.26,8.74-4.5,13.09-6.78a2.37,2.37,0,0,1,2.15-.13C589.27,500.88,591,501.46,593,502.2Z" transform="translate(-82.05 -285.47)"/><path class="cls-4" d="M478.54,555.54c6.56-3.38,13-6.71,19.49-10a1.81,1.81,0,0,1,1.25-.15c1.89.62,3.76,1.32,5.91,2.09l-13.25,6.89,0,.38a26.28,26.28,0,0,1,3.5,1.32c2.36,1.28,4.46,1,6.67-.45a51.11,51.11,0,0,1,6.06-3.14,3.08,3.08,0,0,1,2-.15c1.74.52,3.43,1.21,5.44,1.94l-10,5.22a10.61,10.61,0,0,0,1.11.6c1.69.62,3.36,1.29,5.08,1.8a2.84,2.84,0,0,0,1.9-.14c4-2,7.88-4.07,11.84-6a3,3,0,0,1,2-.13c1.75.52,3.46,1.2,5.43,1.9-1.08.58-2,1.07-2.85,1.53-5.43,2.81-10.85,5.63-16.31,8.38a3,3,0,0,1-2.12.16q-16.43-5.82-32.82-11.75A2,2,0,0,1,478.54,555.54Z" transform="translate(-82.05 -285.47)"/><path class="cls-4" d="M620.06,491.25c-2,1-3.9,2-5.83,3a2.5,2.5,0,0,1-1.27,0,9.69,9.69,0,0,0-6.28,1c-.58.34-1.33,1.18-1.24,1.65a2.57,2.57,0,0,0,1.56,1.54c2.4.82,4.8.24,7.17-.35,3.17-.78,6.31-1.74,9.52-2.31,4-.7,8-.77,11.76.93,1.62.72,3.19,1.63,3.3,3.6s-1.24,3-2.69,4a23.85,23.85,0,0,1-10.16,3.34,27.73,27.73,0,0,1-10.46-.46c-.27-.07-.53-.17-1.07-.35,2.2-1.12,4.2-2.16,6.22-3.14.28-.13.69,0,1,0,2.21.21,4.43.27,6.38-1a2.45,2.45,0,0,0,1.11-1.73,2,2,0,0,0-1.36-1.38,13.49,13.49,0,0,0-4.59-.15c-3.83.77-7.56,2-11.4,2.71a22.21,22.21,0,0,1-11.14-.34,12.67,12.67,0,0,1-3.31-1.63,3,3,0,0,1-.59-4.78,11.48,11.48,0,0,1,3.09-2.4,26.37,26.37,0,0,1,10-2.73,27.89,27.89,0,0,1,9,.5,8.24,8.24,0,0,1,.8.22A2.24,2.24,0,0,1,620.06,491.25Z" transform="translate(-82.05 -285.47)"/><path class="cls-4" d="M613.71,485.8c2.08-1.06,4-2.08,5.94-3a2.4,2.4,0,0,1,1.58.15q15.67,5.6,31.32,11.25l1.79.65c-2.15,1.11-4.11,2.14-6.1,3.11a1.65,1.65,0,0,1-1.14,0q-16.45-5.9-32.89-11.83A4,4,0,0,1,613.71,485.8Z" transform="translate(-82.05 -285.47)"/></svg>