<svg id="Logo_5-1" data-name="Logo 5-1" xmlns="http://www.w3.org/2000/svg" xmlns:xlink="http://www.w3.org/1999/xlink" viewBox="0 0 667.42 309.36"><defs><style>.cls-1{fill:none;}.cls-2{isolation:isolate;}.cls-3{clip-path:url(#clip-path);}.cls-4{clip-path:url(#clip-path-2);}.cls-5{clip-path:url(#clip-path-3);}.cls-6{fill:#f08c21;}.cls-7{fill:#280f0b;}</style><clipPath id="clip-path" transform="translate(-83.65 -285.98)"><polygon class="cls-1" points="411.86 603.7 416.92 438.05 752.19 432.2 747.14 597.85 411.86 603.7"/></clipPath><clipPath id="clip-path-2" transform="translate(-83.65 -285.98)"><polyline class="cls-1" points="411.86 603.7 424.95 443.6 752.19 432.2 739.1 592.3 411.86 603.7"/></clipPath><clipPath id="clip-path-3" transform="translate(-83.65 -285.98)"><polyline class="cls-1" points="447.73 602.45 412.98 589.94 716.32 433.45 751.07 445.96 447.73 602.45"/></clipPath></defs><title>headphones</title><g class="cls-2"><g class="cls-3"><g class="cls-4"><g class="cls-5"><polyline class="cls-6" points="369.62 283.18 362.18 287.02 371.57 295.95 349.48 293.58 358.86 302.52 336.76 300.13 329.33 303.96 329.33 303.96 377.86 309.36 377.86 309.36 368.02 300.3 390.58 302.8 390.58 302.8 369.62 283.18"/><polyline class="cls-6" points="391.83 271.73 374.98 280.41 371.12 282.41 385.02 287.41 391.97 289.9 405.86 294.91 413.51 290.96 420.31 287.46 426.56 284.22 419.6 281.73 405.82 288.84 398.88 286.34 409.23 281 402.28 278.51 391.94 283.85 384.98 281.33 398.76 274.22 391.83 271.73"/><path class="cls-6" d="M513.27,562.54l-5.19-1.87-5.22-1.88,1.72-.88,3.43-1.78a13.38,13.38,0,0,1,5.21-1.34l.78,0h.27a11.54,11.54,0,0,1,4.14.6c1.44.52,2.15,1.22,2.16,2.1s-.71,1.7-2.14,2.44l-5.17,2.66m-17.37-6.25-1.72-.62-1.75-.64,1.71-.88a4.59,4.59,0,0,1,1.91-.52h.07a4.12,4.12,0,0,1,1.51.26c1.15.41,1.15.92,0,1.51l-1.72.89m1.73-6.95h-.46l-1.32.08a22.67,22.67,0,0,0-8.65,2.22l-8.63,4.46,8.68,3.13,1.73.62,7,2.5,5.21,1.88,12.16,4.37,8.67-4.48,3.4-1.75q5-2.57,5-5.68c0-2.09-1.68-3.72-5-4.93a26.21,26.21,0,0,0-8.83-1.37h-.82l-.82,0a38.45,38.45,0,0,0-8,1.11,8.24,8.24,0,0,0-2.29-1.2,19.06,19.06,0,0,0-6.88-1" transform="translate(-83.65 -285.98)"/><path class="cls-6" d="M550.76,543.2l-20.85-7.5A26.79,26.79,0,0,1,540.28,533c.54,0,1.07-.07,1.58-.09l.62,0a22.93,22.93,0,0,1,8.2,1.18c2.88,1,4.32,2.44,4.32,4.22s-1.41,3.4-4.25,4.86m-6.92-14.62-1,0q-1.27,0-2.59.15a45.05,45.05,0,0,0-17.22,4.4l-2,1-5,2.58,34.74,12.51.47-.24,6.74-3.48q6.82-3.61,6.8-8t-7.21-7a38.73,38.73,0,0,0-13.76-2" transform="translate(-83.65 -285.98)"/><polyline class="cls-6" points="479.62 226.44 461.19 235.94 458.92 237.11 472.82 242.12 479.76 244.61 493.66 249.62 500.4 246.14 500.57 246.05 506.37 243.06 514.35 238.93 507.4 236.43 493.61 243.54 486.67 241.05 497.01 235.71 490.07 233.21 479.73 238.55 472.77 236.05 486.55 228.94 479.62 226.44"/><path class="cls-6" d="M589.29,502.71l-.62,0c-.52,0-1,0-1.58.09a27,27,0,0,0-10.34,2.65l-.07,0c-2.82,1.47-4.23,3.08-4.21,4.85s1.44,3.19,4.31,4.21a17.66,17.66,0,0,0,6.15,1l1.21,0a37.79,37.79,0,0,0,5-.49,45.74,45.74,0,0,0,5-1.08l2.51-.74,3.26-.91a8,8,0,0,1,1.9-.3h.14a7.21,7.21,0,0,1,2.55.42c1,.35,1.44.82,1.44,1.41s-.47,1.13-1.42,1.61a8.88,8.88,0,0,1-3.46.9l-.53,0h-.18a7.73,7.73,0,0,1-2.76-.4l-6.92,3.57a23,23,0,0,0,8.23,1.19l.62,0c.51,0,1,0,1.57-.09A26.86,26.86,0,0,0,611.46,518q4.28-2.19,4.25-4.86c0-1.78-1.45-3.18-4.33-4.23a17.15,17.15,0,0,0-6.13-1h-.62a39.18,39.18,0,0,0-5.64.59,41.58,41.58,0,0,0-5,1.18c-1.39.45-2.26.71-2.59.81a28.6,28.6,0,0,1-3.43.74,11.35,11.35,0,0,1-1.49.17h-.15a7.51,7.51,0,0,1-2.66-.41c-.95-.34-1.43-.81-1.44-1.4s.47-1.14,1.41-1.63a9.11,9.11,0,0,1,3.46-.88l.5,0h.27a7.49,7.49,0,0,1,2.69.39l6.9-3.56a23.15,23.15,0,0,0-8.2-1.17" transform="translate(-83.65 -285.98)"/><polyline class="cls-6" points="513.16 209.13 506.24 212.7 540.98 225.2 542.2 224.57 547.9 221.63 513.16 209.13"/><path class="cls-6" d="M635,479.86a57.78,57.78,0,0,0-9.23,1.5,37,37,0,0,0-8.05,3c-4.76,2.45-7.12,5.16-7.08,8.12s2.42,5.31,7.2,7a38.39,38.39,0,0,0,13.69,2l1.05,0c.85,0,1.71-.07,2.59-.14a44.73,44.73,0,0,0,17.28-4.46c4.74-2.44,7.11-5.14,7.08-8.11s-2.42-5.32-7.19-7a28.06,28.06,0,0,0-3.82-1.06l-3.15,1.62-4,2.06-9.76,5,6.94,2.49,9.76-5a3.23,3.23,0,0,1,1.24,3.72c-.47,1.39-1.82,2.65-4.06,3.81A26.9,26.9,0,0,1,635.13,497c-.53,0-1,.07-1.55.09l-.61,0a23.15,23.15,0,0,1-8.23-1.19c-2.86-1-4.3-2.43-4.33-4.21s1.38-3.4,4.24-4.88A27.37,27.37,0,0,1,635,484.15l0-4.29" transform="translate(-83.65 -285.98)"/><polyline class="cls-6" points="580.94 174.17 575.25 177.09 574.02 177.73 593.01 184.56 553.33 188.4 553.33 188.4 553.32 188.41 588.07 200.91 594.97 197.34 575.97 190.5 615.67 186.66 580.94 174.17"/><polyline class="cls-6" points="605.4 161.54 597.99 165.36 584.71 172.22 598.61 177.23 605.55 179.72 619.44 184.72 621.53 183.64 626.36 181.15 640.15 174.04 633.18 171.54 619.4 178.65 612.46 176.15 622.8 170.81 615.86 168.32 605.51 173.66 598.55 171.15 612.35 164.03 605.4 161.54"/><path class="cls-6" d="M716.44,448.6l-5.21-1.87L706,444.85l5.16-2.66a13.49,13.49,0,0,1,5.2-1.34l.73,0h.35a11.53,11.53,0,0,1,4.12.59c1.44.51,2.16,1.22,2.16,2.11s-.7,1.7-2.12,2.44l-5.17,2.66m2.45-12.15-.72,0c-.59,0-1.2.06-1.82.1a31.82,31.82,0,0,0-11.89,3l-3.63,1.87-1.77.91-.41.21-6.49,3.35,12.16,4.38,12.15,4.37,10.44,3.75,4.19-2.16,2.71-1.4-12.71-4.58,21.53,0,8.44-4.35h0l-19,0q2.11-2.22,1.21-4.47c-.59-1.48-2.16-2.68-4.69-3.6l-.05,0-.42-.15a27.44,27.44,0,0,0-9.2-1.24" transform="translate(-83.65 -285.98)"/></g></g></g></g><polygon class="cls-7" points="438.18 138.76 370.67 166.79 370.67 124.87 438.18 99.77 438.18 138.76"/><polygon class="cls-7" points="438.18 229.12 370.67 263.97 370.67 192.99 438.18 163.12 438.18 229.12"/><path class="cls-7" d="M599.63,356.46v35.6l86.48-35.91v21l-86.48,38.39v35.6L686.11,409V431L560.23,496.2V345.25l125.88-43v22.06Z" transform="translate(-83.65 -285.98)"/><path class="cls-7" d="M407.56,397.19V575L84.06,406.48V286m24.53,49.78c.42-3-.37-6.15-.37-9.5a70.16,70.16,0,0,0-3.7-23.38q-3.68-10.45-8.76-12.25l-12.1-4.3V407.45l17,8.61c4.82,2.43,9,.26,12.49-6.58s5.31-16.46,5.31-28.63a105.84,105.84,0,0,0-3.09-25.92C113.33,346.79,111.73,340.4,108.58,335.77Zm-15.26-9.27V314.25l3.43.94c1.65.64,1.47,3,1.47,7.15s-.83,5.79-2.47,5.13Zm8.36,27.73c2.06.89,2.83,3.47,4.31,7.77a43.49,43.49,0,0,1,2.22,14.21q0,7.74-2.22,12.16t-5.31,2.92l-7.36-3.5V351.05l2.43,1Zm24,74.67,11,5.47v-48l14.45,55.15,14.27,7.09L152.17,399q5.7-2.42,9.44-12.77t3.75-25.53a100.66,100.66,0,0,0-6.06-35.62q-6-16-14.25-18.83l-8.4-2.94-11-3.85V428.89Zm11-60.06V329.48l8.4,3.18q3.53,1.34,6.05,8.2A43.48,43.48,0,0,1,153.63,356q0,8.29-2.54,13.11t-6.05,3.3Zm67-41.6c-8.65-3.08-15.92,1.15-21.87,12.53s-8.79,26.19-8.79,45a153.41,153.41,0,0,0,8.79,52.6c6,16.48,13.23,27,21.87,31.32S220,469.94,226.52,459s9.88-26.77,9.88-46.93-3.31-38.61-9.88-55.39C220,340.13,212.39,330.36,203.61,327.23Zm0,28.25q7.87,3,13.62,17.94a90.92,90.92,0,0,1,5.8,32.89q0,17.91-5.8,27.9c-3.83,6.59-8.38,8.61-13.62,6.12s-9.62-8.67-13.24-18.53A91.72,91.72,0,0,1,185,389.93q0-17.12,5.38-27.23C194,355.9,198.39,353.47,203.61,355.48Zm109.93,9.38L299,431.72l-14.72-76.91-13.75,64.85-14-74.34-14.86-5.15,28.85,165.55,13.9-67L299,520.1,331.37,371m13,3.49v167l17.25,8.72V457.41l46,117.56-.07-54.86" transform="translate(-83.65 -285.98)"/></svg>